<svg width="1440" height="98" viewBox="0 0 1440 98" fill="none" xmlns="http://www.w3.org/2000/svg">
<g filter="url(#filter0_d)">
<rect width="1440" height="96" fill="white"/>
</g>
<rect x="1240.5" y="23.5" width="119" height="47" rx="3.5" stroke="#B0B0B0"/>
<path d="M1273.83 47.6128C1272.46 47.2199 1271.46 46.7384 1270.84 46.1685C1270.22 45.5929 1269.91 44.8846 1269.91 44.0435C1269.91 43.0916 1270.29 42.3058 1271.05 41.686C1271.81 41.0607 1272.8 40.748 1274.02 40.748C1274.85 40.748 1275.59 40.9085 1276.23 41.2295C1276.89 41.5505 1277.39 41.9932 1277.75 42.5576C1278.11 43.1221 1278.29 43.7391 1278.29 44.4087H1276.68C1276.68 43.6782 1276.45 43.1055 1275.99 42.6904C1275.52 42.2699 1274.87 42.0596 1274.02 42.0596C1273.23 42.0596 1272.62 42.2339 1272.18 42.5825C1271.74 42.9256 1271.52 43.4043 1271.52 44.0186C1271.52 44.5111 1271.73 44.9289 1272.14 45.272C1272.56 45.6095 1273.27 45.9194 1274.28 46.2017C1275.28 46.4839 1276.07 46.7965 1276.63 47.1396C1277.2 47.4772 1277.62 47.8729 1277.9 48.3267C1278.17 48.7804 1278.31 49.3145 1278.31 49.9287C1278.31 50.9082 1277.93 51.694 1277.16 52.2861C1276.4 52.8727 1275.38 53.166 1274.1 53.166C1273.27 53.166 1272.5 53.0083 1271.78 52.6929C1271.06 52.3719 1270.5 51.9347 1270.11 51.3813C1269.72 50.828 1269.53 50.1999 1269.53 49.4971H1271.13C1271.13 50.2275 1271.4 50.8058 1271.94 51.2319C1272.48 51.6525 1273.2 51.8628 1274.1 51.8628C1274.94 51.8628 1275.59 51.6912 1276.04 51.3481C1276.48 51.005 1276.71 50.5374 1276.71 49.9453C1276.71 49.3532 1276.5 48.8966 1276.09 48.5757C1275.67 48.2492 1274.92 47.9282 1273.83 47.6128ZM1283.85 53.166C1282.63 53.166 1281.64 52.7676 1280.88 51.9707C1280.11 51.1683 1279.73 50.0975 1279.73 48.7583V48.4761C1279.73 47.5851 1279.9 46.791 1280.24 46.0938C1280.58 45.391 1281.05 44.8431 1281.66 44.4502C1282.28 44.0518 1282.94 43.8525 1283.66 43.8525C1284.82 43.8525 1285.73 44.2371 1286.38 45.0063C1287.03 45.7756 1287.35 46.8768 1287.35 48.3101V48.9492H1281.27C1281.29 49.8346 1281.54 50.5513 1282.04 51.0991C1282.54 51.6414 1283.17 51.9126 1283.93 51.9126C1284.47 51.9126 1284.93 51.8019 1285.31 51.5806C1285.68 51.3592 1286.01 51.0659 1286.3 50.7007L1287.23 51.4312C1286.48 52.5877 1285.35 53.166 1283.85 53.166ZM1283.66 45.1143C1283.04 45.1143 1282.52 45.3411 1282.1 45.7949C1281.67 46.2432 1281.41 46.874 1281.31 47.6875H1285.81V47.5713C1285.77 46.791 1285.56 46.1878 1285.18 45.7617C1284.81 45.3301 1284.3 45.1143 1283.66 45.1143ZM1296.72 48.6089C1296.72 49.9757 1296.41 51.077 1295.78 51.9126C1295.16 52.7482 1294.31 53.166 1293.24 53.166C1292.15 53.166 1291.3 52.8201 1290.67 52.1284V56.4531H1289.13V44.0186H1290.54L1290.61 45.0146C1291.24 44.2399 1292.11 43.8525 1293.22 43.8525C1294.3 43.8525 1295.15 44.2593 1295.77 45.0728C1296.41 45.8862 1296.72 47.0179 1296.72 48.4678V48.6089ZM1295.19 48.4346C1295.19 47.4219 1294.97 46.6222 1294.54 46.0356C1294.11 45.4491 1293.51 45.1558 1292.76 45.1558C1291.83 45.1558 1291.13 45.568 1290.67 46.3926V50.6841C1291.13 51.5031 1291.83 51.9126 1292.78 51.9126C1293.51 51.9126 1294.1 51.6221 1294.53 51.041C1294.97 50.4544 1295.19 49.5856 1295.19 48.4346ZM1302.41 53.166C1301.19 53.166 1300.2 52.7676 1299.44 51.9707C1298.67 51.1683 1298.29 50.0975 1298.29 48.7583V48.4761C1298.29 47.5851 1298.46 46.791 1298.8 46.0938C1299.14 45.391 1299.62 44.8431 1300.22 44.4502C1300.84 44.0518 1301.5 43.8525 1302.22 43.8525C1303.38 43.8525 1304.29 44.2371 1304.94 45.0063C1305.59 45.7756 1305.91 46.8768 1305.91 48.3101V48.9492H1299.83C1299.85 49.8346 1300.11 50.5513 1300.6 51.0991C1301.1 51.6414 1301.73 51.9126 1302.49 51.9126C1303.03 51.9126 1303.49 51.8019 1303.87 51.5806C1304.24 51.3592 1304.57 51.0659 1304.86 50.7007L1305.79 51.4312C1305.04 52.5877 1303.91 53.166 1302.41 53.166ZM1302.22 45.1143C1301.6 45.1143 1301.08 45.3411 1300.66 45.7949C1300.24 46.2432 1299.98 46.874 1299.88 47.6875H1304.37V47.5713C1304.33 46.791 1304.12 46.1878 1303.74 45.7617C1303.37 45.3301 1302.86 45.1143 1302.22 45.1143ZM1309.78 41.8438V44.0186H1311.46V45.2056H1309.78V50.7754C1309.78 51.1351 1309.85 51.4062 1310 51.5889C1310.15 51.766 1310.41 51.8545 1310.77 51.8545C1310.94 51.8545 1311.19 51.8213 1311.5 51.7549V53C1311.09 53.1107 1310.7 53.166 1310.32 53.166C1309.63 53.166 1309.11 52.9585 1308.77 52.5435C1308.42 52.1284 1308.24 51.5391 1308.24 50.7754V45.2056H1306.61V44.0186H1308.24V41.8438H1309.78ZM1314.92 53H1313.39V44.0186H1314.92V53ZM1313.26 41.6362C1313.26 41.3872 1313.34 41.1769 1313.49 41.0054C1313.64 40.8338 1313.87 40.748 1314.17 40.748C1314.47 40.748 1314.7 40.8338 1314.85 41.0054C1315.01 41.1769 1315.08 41.3872 1315.08 41.6362C1315.08 41.8853 1315.01 42.0928 1314.85 42.2588C1314.7 42.4248 1314.47 42.5078 1314.17 42.5078C1313.87 42.5078 1313.64 42.4248 1313.49 42.2588C1313.34 42.0928 1313.26 41.8853 1313.26 41.6362ZM1318.83 44.0186L1318.88 45.0146C1319.53 44.2399 1320.42 43.8525 1321.54 43.8525C1322.8 43.8525 1323.65 44.334 1324.11 45.2969C1324.4 44.8652 1324.79 44.5166 1325.27 44.251C1325.75 43.9854 1326.32 43.8525 1326.97 43.8525C1328.94 43.8525 1329.94 44.8957 1329.97 46.9819V53H1328.44V47.0732C1328.44 46.4313 1328.29 45.9526 1328 45.6372C1327.71 45.3162 1327.21 45.1558 1326.52 45.1558C1325.95 45.1558 1325.48 45.3273 1325.1 45.6704C1324.73 46.008 1324.51 46.4645 1324.45 47.04V53H1322.9V47.1147C1322.9 45.8088 1322.26 45.1558 1320.98 45.1558C1319.98 45.1558 1319.29 45.5846 1318.92 46.4424V53H1317.38V44.0186H1318.83Z" fill="#B0B0B0"/>
<circle cx="1355" cy="25" r="9" fill="#FF6000"/>
<path d="M1357.04 25.959H1358.11V27.1016H1357.04V29H1355.62V27.1016H1351.94L1351.89 26.2344L1355.57 20.4688H1357.04V25.959ZM1353.39 25.959H1355.62V22.3965L1355.52 22.584L1353.39 25.959Z" fill="white"/>
<path fill-rule="evenodd" clip-rule="evenodd" d="M133.929 38.0109C136.361 38.0109 138.419 38.8805 140.106 40.6173C141.793 42.3542 142.636 44.9048 142.636 48.2681C142.636 51.8152 141.812 54.52 140.164 56.3794C138.515 58.2388 136.392 59.1706 133.795 59.1706C132.14 59.1706 130.764 58.7692 129.67 57.9697C129.072 57.5256 128.485 56.8792 127.913 56.0283V66H122.563V38.455H127.741V41.43C128.328 40.555 128.952 39.8659 129.614 39.3606C130.823 38.4616 132.261 38.0109 133.929 38.0109ZM110.5 37.9191C112.3 37.9191 113.921 38.2341 115.365 38.863C116.807 39.493 117.998 40.485 118.938 41.8423C119.785 43.04 120.335 44.428 120.586 46.0073C120.732 46.9327 120.791 48.2648 120.765 50.0039H105.7C105.784 52.0252 106.506 53.4416 107.864 54.2542C108.69 54.7595 109.683 55.0122 110.845 55.0122C112.077 55.0122 113.078 54.7048 113.848 54.088C114.268 53.7555 114.639 53.2939 114.961 52.7022H120.482C120.336 53.8977 119.668 55.1106 118.477 56.3422C116.624 58.3011 114.031 59.2811 110.696 59.2811C107.944 59.2811 105.515 58.4553 103.411 56.8027C101.308 55.1511 100.256 52.4627 100.256 48.7384C100.256 45.2494 101.204 42.5741 103.105 40.7125C105.004 38.8509 107.468 37.9191 110.5 37.9191ZM152.878 37.883C155.463 37.883 157.571 38.385 159.201 39.388C160.829 40.392 161.764 42.1267 162.005 44.5898H156.597C156.521 43.9117 156.324 43.3769 156.007 42.982C155.411 42.2678 154.396 41.9102 152.963 41.9102C151.783 41.9102 150.944 42.0895 150.442 42.4461C149.941 42.8038 149.691 43.2227 149.691 43.7039C149.691 44.3066 149.957 44.7441 150.489 45.0153C151.022 45.2997 152.904 45.7853 156.136 46.4744C158.29 46.9677 159.905 47.7125 160.981 48.7111C162.043 49.7217 162.573 50.9839 162.573 52.4988C162.573 54.4948 161.811 56.1245 160.283 57.3878C158.755 58.6489 156.395 59.28 153.201 59.28C149.943 59.28 147.538 58.6128 145.986 57.2763C144.432 55.9397 143.656 54.2356 143.656 52.1663H149.141C149.254 53.1036 149.502 53.7686 149.884 54.1623C150.557 54.8645 151.802 55.2156 153.621 55.2156C154.688 55.2156 155.537 55.0625 156.166 54.753C156.794 54.4467 157.109 53.9841 157.109 53.3672C157.109 52.7766 156.856 52.327 156.349 52.0186C155.842 51.7113 153.957 51.1808 150.692 50.4294C148.341 49.8628 146.686 49.1552 145.724 48.3042C144.763 47.4664 144.283 46.2589 144.283 44.6828C144.283 42.8223 145.035 41.2244 146.535 39.8878C148.039 38.5513 150.152 37.883 152.878 37.883ZM282.792 38.0394C285.06 38.0394 287.077 38.4769 288.838 39.3486C290.6 40.2225 291.481 41.8686 291.481 44.2902V53.7522C291.484 54.7738 291.496 57.7881 291.519 58.615H286.275C286.275 58.615 286.313 56.7119 286.275 56.2569C285.519 57.0493 284.645 57.7272 283.684 58.2683C282.516 58.9191 281.196 59.245 279.723 59.245C277.843 59.245 276.291 58.7255 275.067 57.6864C273.842 56.6473 273.23 55.1763 273.23 53.2709C273.23 50.7991 274.214 49.0108 276.185 47.905C277.265 47.3023 278.856 46.8725 280.954 46.6144L282.804 46.3923C283.809 46.2698 284.527 46.1156 284.959 45.9319C285.735 45.6125 286.123 45.1138 286.123 44.4378C286.123 43.6142 285.826 43.0455 285.231 42.7316C284.636 42.4188 283.762 42.2613 282.611 42.2613C281.318 42.2613 280.403 42.5697 279.867 43.1833C279.482 43.6383 279.227 44.2541 279.098 45.0284H273.891C274.006 43.2697 274.513 41.8259 275.413 40.6939C276.846 38.9242 279.306 38.0394 282.791 38.0394H282.792ZM239.938 38.0394C242.207 38.0394 244.223 38.4769 245.984 39.3486C247.746 40.2225 248.627 41.8686 248.627 44.2902V53.5105C248.627 54.1492 248.64 57.705 248.666 58.615H243.421C243.421 58.615 243.459 56.7119 243.421 56.2569C242.664 57.0493 241.791 57.7273 240.829 58.2683C239.663 58.9191 238.342 59.245 236.87 59.245C234.99 59.245 233.438 58.7255 232.213 57.6864C230.988 56.6473 230.375 55.1763 230.375 53.2709C230.375 50.7991 231.36 49.0108 233.332 47.905C234.412 47.3023 236.002 46.8725 238.099 46.6144L239.95 46.3923C240.955 46.2698 241.673 46.1156 242.106 45.9319C242.881 45.6125 243.269 45.1138 243.269 44.4378C243.269 43.6142 242.972 43.0455 242.376 42.7316C241.782 42.4188 240.908 42.2613 239.757 42.2613C238.464 42.2613 237.55 42.5697 237.012 43.1833C236.629 43.6383 236.373 44.2541 236.244 45.0284H231.038C231.151 43.2697 231.658 41.8259 232.559 40.6939C233.992 38.9242 236.451 38.0394 239.938 38.0394ZM270.772 31.0448V58.5964H265.516V55.8073C264.744 57.0017 263.865 57.8713 262.877 58.4127C261.89 58.9552 260.664 59.2253 259.197 59.2253C256.781 59.2253 254.747 58.2738 253.096 56.3706C251.446 54.4675 250.621 52.0252 250.621 49.0436C250.621 45.607 251.433 42.9033 253.058 40.9313C254.685 38.9603 256.856 37.9748 259.576 37.9748C260.828 37.9748 261.942 38.2428 262.917 38.7788C263.888 39.3128 264.704 40.0792 265.288 41.0056V31.0448H270.772ZM178.357 31.0448V41.0789C179.044 40.1427 179.803 39.4284 180.629 38.9352C181.61 38.3194 182.858 38.012 184.372 38.012C187.109 38.012 189.252 38.9669 190.799 40.8766C192.347 42.7852 193.12 45.2494 193.12 48.2681C193.12 51.3963 192.357 53.9895 190.83 56.048C189.304 58.1042 187.176 59.1334 184.442 59.1334C182.726 59.1334 181.346 58.8009 180.303 58.1359C179.68 57.7422 179.006 57.052 178.282 56.0655V58.5975H172.949V31.0459H178.357V31.0448ZM200.761 38.455V50.5956C200.761 51.7419 200.899 52.6038 201.176 53.1834C201.668 54.2061 202.63 54.7169 204.065 54.7169C205.903 54.7169 207.161 53.9895 207.842 52.5359C208.194 51.7484 208.37 50.7072 208.37 49.4133V38.455H213.854V58.5975H208.598V55.7516C208.465 55.932 208.339 56.117 208.22 56.3061C208.018 56.6145 207.779 56.8858 207.501 57.1188C206.655 57.8581 205.838 58.3634 205.05 58.6347C204.261 58.9048 203.338 59.0405 202.279 59.0405C199.226 59.0405 197.169 57.9686 196.11 55.8248C195.516 54.6436 195.22 52.9002 195.22 50.5967V38.4561H200.761V38.455ZM85.4077 31.0995V40.1744C86.4082 39.2119 86.9085 38.8991 87.9091 38.5119C88.9612 38.105 90.2254 37.9191 91.3594 37.9191C92.6314 37.9191 93.7867 38.1345 94.8254 38.5666C95.8486 38.9857 96.7344 39.6704 97.3862 40.5463C97.9527 41.2988 98.2982 42.072 98.4249 42.8672C98.5506 43.6623 98.6134 44.9606 98.6134 46.7609V58.5975H93.0924V46.3322C93.0924 45.2472 92.904 44.3711 92.5271 43.705C92.038 42.7677 91.1081 42.2995 89.7397 42.2995C88.3207 42.2995 87.2439 42.7644 86.5092 43.6963C85.7745 44.6259 85.4077 45.9559 85.4077 47.6819V58.5975H80V31.1006H85.4077V31.0995ZM170.204 38.455V58.5975H164.72V38.455H170.204ZM228.531 37.9738C228.632 37.9738 228.717 37.9781 228.787 37.9847C228.857 37.9902 229.011 38 229.251 38.012V43.4075C228.735 43.3501 228.216 43.3194 227.697 43.3156C225.521 43.3156 224.059 44.0047 223.313 45.385C222.895 46.1616 222.687 47.3559 222.687 48.9703V58.5975H217.241V38.455H222.401V41.9659C223.237 40.6239 223.965 39.7063 224.584 39.213C225.596 38.3872 226.912 37.9748 228.531 37.9748V37.9738ZM243.25 48.8456C242.905 49.0534 242.555 49.223 242.204 49.352C241.851 49.4811 241.369 49.6003 240.754 49.7119L239.526 49.9328C238.375 50.1297 237.549 50.3692 237.047 50.6525C236.196 51.1316 235.772 51.8753 235.772 52.8838C235.772 53.7806 236.03 54.4292 236.55 54.8284C237.068 55.2288 237.7 55.4278 238.444 55.4278C239.623 55.4278 240.709 55.0964 241.702 54.4325C242.696 53.7675 243.212 52.5578 243.25 50.7991V48.8456ZM286.103 48.8456C285.759 49.0534 285.41 49.223 285.058 49.352C284.706 49.4811 284.222 49.6003 283.609 49.7119L282.38 49.9328C281.228 50.1297 280.403 50.3692 279.9 50.6525C279.05 51.1316 278.625 51.8753 278.625 52.8838C278.625 53.7806 278.884 54.4292 279.404 54.8284C279.923 55.2288 280.554 55.4278 281.298 55.4278C282.477 55.4278 283.564 55.0964 284.556 54.4325C285.55 53.7675 286.065 52.5578 286.104 50.7991V48.8456H286.103ZM182.855 42.6134C180.877 42.6134 179.519 43.4819 178.78 45.2188C178.397 46.143 178.205 47.3373 178.205 48.803C178.205 50.5278 178.601 51.9573 179.392 53.0905C180.183 54.2247 181.388 54.7913 183.007 54.7913C184.411 54.7913 185.501 54.2433 186.279 53.1463C187.057 52.0503 187.446 50.6088 187.446 48.8216C187.446 47.3931 187.255 46.2097 186.872 45.2734C186.145 43.5005 184.807 42.6134 182.855 42.6134ZM260.79 42.5763C259.21 42.5763 258.05 43.1581 257.309 44.323C256.569 45.4867 256.199 46.9316 256.199 48.6553C256.199 50.5158 256.575 52.0033 257.327 53.1178C258.08 54.2334 259.223 54.7913 260.753 54.7913C262.283 54.7913 263.447 54.2367 264.244 53.1277C265.041 52.0186 265.439 50.5836 265.439 48.8227C265.439 46.3584 264.8 44.5964 263.524 43.5377C262.762 42.905 261.791 42.5634 260.791 42.5763H260.79ZM132.383 42.6134C130.401 42.6134 129.04 43.518 128.3 45.3292C127.915 46.2906 127.725 47.5102 127.725 48.9878C127.725 51.3284 128.369 52.9734 129.658 53.9217C130.426 54.4763 131.333 54.753 132.381 54.753C133.902 54.753 135.062 54.1875 135.861 53.0533C136.66 51.9202 137.059 50.4108 137.059 48.5252C137.059 46.9742 136.691 45.6005 135.957 44.405C135.222 43.2106 134.031 42.6134 132.383 42.6134ZM110.503 42.2613C109.116 42.2613 108.04 42.6452 107.275 43.413C106.511 44.1797 106.031 45.2188 105.835 46.5302H115.152C115.053 45.1323 114.573 44.0714 113.71 43.3473C112.849 42.6233 111.78 42.2613 110.503 42.2613ZM167.375 31C168.164 30.9997 168.921 31.305 169.48 31.8487C170.038 32.3925 170.352 33.1301 170.352 33.8995C170.352 34.2806 170.275 34.6579 170.125 35.0099C169.976 35.3619 169.756 35.6817 169.48 35.951C169.204 36.2204 168.875 36.434 168.514 36.5797C168.153 36.7254 167.766 36.8003 167.375 36.8002C166.984 36.8006 166.597 36.7259 166.236 36.5802C165.874 36.4346 165.546 36.2209 165.269 35.9514C164.992 35.6819 164.773 35.3619 164.623 35.0096C164.473 34.6574 164.396 34.2798 164.396 33.8984C164.397 33.5174 164.474 33.1401 164.624 32.7882C164.774 32.4364 164.994 32.1167 165.27 31.8476C165.547 31.5784 165.875 31.3651 166.236 31.2196C166.598 31.0742 166.985 30.9996 167.375 31Z" fill="#FF6000"/>
<rect x="445" y="24" width="695" height="48" rx="24" fill="#EEEEEE"/>
<path d="M508.874 53H501.886V52.0259L505.578 47.9243C506.125 47.3042 506.5 46.8013 506.706 46.4155C506.916 46.0249 507.021 45.6221 507.021 45.207C507.021 44.6504 506.852 44.1938 506.515 43.8374C506.178 43.481 505.729 43.3027 505.167 43.3027C504.494 43.3027 503.969 43.4956 503.593 43.8813C503.222 44.2622 503.036 44.7944 503.036 45.478H501.681C501.681 44.4966 501.996 43.7031 502.626 43.0977C503.261 42.4922 504.108 42.1895 505.167 42.1895C506.159 42.1895 506.942 42.4507 507.519 42.9731C508.095 43.4907 508.383 44.1816 508.383 45.0459C508.383 46.0957 507.714 47.3457 506.376 48.7959L503.52 51.894H508.874V53ZM510.932 47.6533L511.474 42.3359H516.938V43.5884H512.624L512.301 46.4961C512.824 46.1885 513.417 46.0347 514.081 46.0347C515.053 46.0347 515.824 46.3569 516.396 47.0015C516.967 47.6411 517.252 48.5078 517.252 49.6016C517.252 50.7002 516.955 51.5669 516.359 52.2017C515.768 52.8315 514.94 53.1465 513.876 53.1465C512.934 53.1465 512.165 52.8853 511.569 52.3628C510.973 51.8403 510.634 51.1177 510.551 50.1948H511.833C511.916 50.8052 512.133 51.2666 512.484 51.5791C512.836 51.8867 513.3 52.0405 513.876 52.0405C514.506 52.0405 514.999 51.8257 515.355 51.396C515.717 50.9663 515.897 50.373 515.897 49.6162C515.897 48.9033 515.702 48.332 515.312 47.9023C514.926 47.4678 514.411 47.2505 513.766 47.2505C513.175 47.2505 512.711 47.3799 512.375 47.6387L512.016 47.9316L510.932 47.6533ZM523.866 45.0752L523.903 45.9541C524.484 45.2705 525.268 44.9287 526.254 44.9287C527.362 44.9287 528.117 45.3535 528.517 46.2031C528.781 45.8223 529.123 45.5146 529.542 45.2803C529.967 45.0459 530.468 44.9287 531.044 44.9287C532.782 44.9287 533.666 45.8491 533.695 47.6899V53H532.34V47.7705C532.34 47.2041 532.211 46.7817 531.952 46.5034C531.693 46.2202 531.259 46.0786 530.648 46.0786C530.146 46.0786 529.728 46.23 529.396 46.5327C529.064 46.8306 528.871 47.2334 528.817 47.7412V53H527.455V47.8071C527.455 46.6548 526.891 46.0786 525.763 46.0786C524.875 46.0786 524.267 46.457 523.939 47.2139V53H522.584V45.0752H523.866ZM537.218 53H535.863V45.0752H537.218V53ZM535.753 42.9731C535.753 42.7534 535.819 42.5679 535.951 42.4165C536.088 42.2651 536.288 42.1895 536.552 42.1895C536.815 42.1895 537.016 42.2651 537.152 42.4165C537.289 42.5679 537.357 42.7534 537.357 42.9731C537.357 43.1929 537.289 43.376 537.152 43.5225C537.016 43.6689 536.815 43.7422 536.552 43.7422C536.288 43.7422 536.088 43.6689 535.951 43.5225C535.819 43.376 535.753 43.1929 535.753 42.9731ZM540.866 53H539.511V41.75H540.866V53ZM545.634 51.0151L547.479 45.0752H548.93L545.744 54.2231C545.25 55.5415 544.467 56.2007 543.393 56.2007L543.136 56.1787L542.631 56.0835V54.9849L542.997 55.0142C543.456 55.0142 543.812 54.9214 544.066 54.7358C544.325 54.5503 544.538 54.2109 544.704 53.7178L545.004 52.9121L542.177 45.0752H543.656L545.634 51.0151ZM549.669 48.9644C549.669 48.188 549.821 47.4897 550.124 46.8696C550.431 46.2495 550.856 45.771 551.398 45.4341C551.945 45.0972 552.567 44.9287 553.266 44.9287C554.345 44.9287 555.216 45.3022 555.88 46.0493C556.549 46.7964 556.884 47.79 556.884 49.0303V49.1255C556.884 49.897 556.735 50.5903 556.437 51.2056C556.144 51.8159 555.722 52.292 555.17 52.6338C554.623 52.9756 553.993 53.1465 553.28 53.1465C552.206 53.1465 551.334 52.7729 550.666 52.0259C550.001 51.2788 549.669 50.29 549.669 49.0596V48.9644ZM551.032 49.1255C551.032 50.0044 551.234 50.71 551.64 51.2422C552.05 51.7744 552.597 52.0405 553.28 52.0405C553.969 52.0405 554.516 51.772 554.921 51.2349C555.326 50.6929 555.529 49.936 555.529 48.9644C555.529 48.0952 555.321 47.3921 554.906 46.855C554.496 46.313 553.949 46.042 553.266 46.042C552.597 46.042 552.057 46.3081 551.647 46.8403C551.237 47.3726 551.032 48.1343 551.032 49.1255ZM559.865 45.0752L559.909 46.0713C560.514 45.3096 561.305 44.9287 562.282 44.9287C563.957 44.9287 564.801 45.8735 564.816 47.7632V53H563.461V47.7559C563.456 47.1846 563.324 46.7622 563.065 46.4888C562.812 46.2153 562.414 46.0786 561.872 46.0786C561.432 46.0786 561.046 46.1958 560.714 46.4302C560.382 46.6646 560.124 46.9722 559.938 47.353V53H558.583V45.0752H559.865ZM566.369 45.3389L565.6 44.8115C566.054 44.1768 566.288 43.5078 566.303 42.8047V41.75H567.643V42.7021C567.638 43.1904 567.516 43.6787 567.277 44.167C567.042 44.6504 566.74 45.041 566.369 45.3389ZM568.507 48.9717C568.507 47.7559 568.795 46.7793 569.372 46.042C569.948 45.2998 570.702 44.9287 571.635 44.9287C572.562 44.9287 573.297 45.2461 573.839 45.8809V41.75H575.194V53H573.949L573.883 52.1504C573.341 52.8145 572.587 53.1465 571.62 53.1465C570.702 53.1465 569.953 52.7705 569.372 52.0186C568.795 51.2666 568.507 50.2852 568.507 49.0742V48.9717ZM569.862 49.1255C569.862 50.0239 570.048 50.7271 570.419 51.2349C570.79 51.7427 571.303 51.9966 571.957 51.9966C572.816 51.9966 573.444 51.6108 573.839 50.8394V47.1992C573.434 46.4521 572.812 46.0786 571.972 46.0786C571.308 46.0786 570.79 46.335 570.419 46.8477C570.048 47.3604 569.862 48.1196 569.862 49.1255ZM582.196 53C582.118 52.8438 582.055 52.5654 582.006 52.165C581.376 52.8193 580.624 53.1465 579.75 53.1465C578.969 53.1465 578.327 52.9268 577.824 52.4873C577.326 52.043 577.077 51.4814 577.077 50.8027C577.077 49.9775 577.389 49.3379 578.014 48.8838C578.644 48.4248 579.528 48.1953 580.666 48.1953H581.984V47.5728C581.984 47.0991 581.842 46.7231 581.559 46.4448C581.276 46.1616 580.858 46.02 580.307 46.02C579.823 46.02 579.418 46.1421 579.091 46.3862C578.764 46.6304 578.6 46.9258 578.6 47.2725H577.238C577.238 46.877 577.377 46.4961 577.655 46.1299C577.938 45.7588 578.319 45.4658 578.798 45.251C579.281 45.0361 579.811 44.9287 580.387 44.9287C581.3 44.9287 582.016 45.1582 582.533 45.6172C583.051 46.0713 583.319 46.6987 583.339 47.4995V51.147C583.339 51.8745 583.432 52.4531 583.617 52.8828V53H582.196ZM579.948 51.9673C580.373 51.9673 580.775 51.8574 581.156 51.6377C581.537 51.418 581.813 51.1323 581.984 50.7808V49.1548H580.922C579.262 49.1548 578.432 49.6406 578.432 50.6123C578.432 51.0371 578.573 51.3691 578.856 51.6084C579.14 51.8477 579.503 51.9673 579.948 51.9673ZM586.745 45.0752L586.789 46.0713C587.394 45.3096 588.185 44.9287 589.162 44.9287C590.836 44.9287 591.681 45.8735 591.696 47.7632V53H590.341V47.7559C590.336 47.1846 590.204 46.7622 589.945 46.4888C589.691 46.2153 589.293 46.0786 588.751 46.0786C588.312 46.0786 587.926 46.1958 587.594 46.4302C587.262 46.6646 587.003 46.9722 586.818 47.353V53H585.463V45.0752H586.745ZM598.126 53V46.1226H596.874V45.0752H598.126V44.2622C598.126 43.4126 598.354 42.7559 598.808 42.292C599.262 41.8281 599.904 41.5962 600.734 41.5962C601.046 41.5962 601.356 41.6377 601.664 41.7207L601.591 42.8193C601.361 42.7754 601.117 42.7534 600.858 42.7534C600.419 42.7534 600.08 42.8828 599.84 43.1416C599.601 43.3955 599.481 43.7617 599.481 44.2402V45.0752H601.173V46.1226H599.481V53H598.126ZM607.567 53C607.489 52.8438 607.426 52.5654 607.377 52.165C606.747 52.8193 605.995 53.1465 605.121 53.1465C604.34 53.1465 603.698 52.9268 603.195 52.4873C602.697 52.043 602.448 51.4814 602.448 50.8027C602.448 49.9775 602.76 49.3379 603.385 48.8838C604.015 48.4248 604.899 48.1953 606.037 48.1953H607.355V47.5728C607.355 47.0991 607.213 46.7231 606.93 46.4448C606.647 46.1616 606.229 46.02 605.678 46.02C605.194 46.02 604.789 46.1421 604.462 46.3862C604.135 46.6304 603.971 46.9258 603.971 47.2725H602.609C602.609 46.877 602.748 46.4961 603.026 46.1299C603.31 45.7588 603.69 45.4658 604.169 45.251C604.652 45.0361 605.182 44.9287 605.758 44.9287C606.671 44.9287 607.387 45.1582 607.904 45.6172C608.422 46.0713 608.69 46.6987 608.71 47.4995V51.147C608.71 51.8745 608.803 52.4531 608.988 52.8828V53H607.567ZM605.319 51.9673C605.744 51.9673 606.146 51.8574 606.527 51.6377C606.908 51.418 607.184 51.1323 607.355 50.7808V49.1548H606.293C604.633 49.1548 603.803 49.6406 603.803 50.6123C603.803 51.0371 603.944 51.3691 604.228 51.6084C604.511 51.8477 604.875 51.9673 605.319 51.9673ZM612.108 51.894H616.745V53H610.453V52.0039L614.826 46.1958H610.519V45.0752H616.525V46.0347L612.108 51.894ZM619.748 53H618.393V41.75H619.748V53ZM626.815 53C626.737 52.8438 626.674 52.5654 626.625 52.165C625.995 52.8193 625.243 53.1465 624.369 53.1465C623.588 53.1465 622.946 52.9268 622.443 52.4873C621.945 52.043 621.696 51.4814 621.696 50.8027C621.696 49.9775 622.008 49.3379 622.633 48.8838C623.263 48.4248 624.147 48.1953 625.285 48.1953H626.603V47.5728C626.603 47.0991 626.461 46.7231 626.178 46.4448C625.895 46.1616 625.478 46.02 624.926 46.02C624.442 46.02 624.037 46.1421 623.71 46.3862C623.383 46.6304 623.219 46.9258 623.219 47.2725H621.857C621.857 46.877 621.996 46.4961 622.274 46.1299C622.558 45.7588 622.938 45.4658 623.417 45.251C623.9 45.0361 624.43 44.9287 625.006 44.9287C625.919 44.9287 626.635 45.1582 627.152 45.6172C627.67 46.0713 627.938 46.6987 627.958 47.4995V51.147C627.958 51.8745 628.051 52.4531 628.236 52.8828V53H626.815ZM624.567 51.9673C624.992 51.9673 625.395 51.8574 625.775 51.6377C626.156 51.418 626.432 51.1323 626.603 50.7808V49.1548H625.541C623.881 49.1548 623.051 49.6406 623.051 50.6123C623.051 51.0371 623.192 51.3691 623.476 51.6084C623.759 51.8477 624.123 51.9673 624.567 51.9673ZM638.695 52.2163C638.168 52.8364 637.394 53.1465 636.374 53.1465C635.529 53.1465 634.884 52.9023 634.44 52.4141C634 51.9209 633.778 51.1934 633.773 50.2314V45.0752H635.128V50.1948C635.128 51.396 635.617 51.9966 636.593 51.9966C637.628 51.9966 638.317 51.6108 638.659 50.8394V45.0752H640.014V53H638.725L638.695 52.2163ZM634.572 42.9585C634.572 42.7388 634.638 42.5557 634.77 42.4092C634.906 42.2578 635.106 42.1821 635.37 42.1821C635.634 42.1821 635.834 42.2578 635.971 42.4092C636.107 42.5557 636.176 42.7388 636.176 42.9585C636.176 43.1782 636.107 43.3613 635.971 43.5078C635.834 43.6543 635.634 43.7275 635.37 43.7275C635.106 43.7275 634.906 43.6543 634.77 43.5078C634.638 43.3613 634.572 43.1782 634.572 42.9585ZM637.721 42.9731C637.721 42.7534 637.787 42.5679 637.919 42.4165C638.056 42.2651 638.256 42.1895 638.52 42.1895C638.783 42.1895 638.983 42.2651 639.12 42.4165C639.257 42.5679 639.325 42.7534 639.325 42.9731C639.325 43.1929 639.257 43.376 639.12 43.5225C638.983 43.6689 638.783 43.7422 638.52 43.7422C638.256 43.7422 638.056 43.6689 637.919 43.5225C637.787 43.376 637.721 43.1929 637.721 42.9731ZM645.91 46.291C645.705 46.2568 645.482 46.2397 645.243 46.2397C644.354 46.2397 643.751 46.6182 643.434 47.375V53H642.079V45.0752H643.397L643.419 45.9907C643.864 45.2827 644.494 44.9287 645.309 44.9287C645.573 44.9287 645.773 44.9629 645.91 45.0312V46.291ZM652.055 52.2163C651.527 52.8364 650.753 53.1465 649.733 53.1465C648.888 53.1465 648.244 52.9023 647.799 52.4141C647.36 51.9209 647.138 51.1934 647.133 50.2314V45.0752H648.488V50.1948C648.488 51.396 648.976 51.9966 649.953 51.9966C650.988 51.9966 651.676 51.6108 652.018 50.8394V45.0752H653.373V53H652.084L652.055 52.2163ZM647.931 42.9585C647.931 42.7388 647.997 42.5557 648.129 42.4092C648.266 42.2578 648.466 42.1821 648.729 42.1821C648.993 42.1821 649.193 42.2578 649.33 42.4092C649.467 42.5557 649.535 42.7388 649.535 42.9585C649.535 43.1782 649.467 43.3613 649.33 43.5078C649.193 43.6543 648.993 43.7275 648.729 43.7275C648.466 43.7275 648.266 43.6543 648.129 43.5078C647.997 43.3613 647.931 43.1782 647.931 42.9585ZM651.081 42.9731C651.081 42.7534 651.146 42.5679 651.278 42.4165C651.415 42.2651 651.615 42.1895 651.879 42.1895C652.143 42.1895 652.343 42.2651 652.479 42.4165C652.616 42.5679 652.685 42.7534 652.685 42.9731C652.685 43.1929 652.616 43.376 652.479 43.5225C652.343 43.6689 652.143 43.7422 651.879 43.7422C651.615 43.7422 651.415 43.6689 651.278 43.5225C651.146 43.376 651.081 43.1929 651.081 42.9731ZM656.72 45.0752L656.764 46.0713C657.37 45.3096 658.161 44.9287 659.137 44.9287C660.812 44.9287 661.657 45.8735 661.671 47.7632V53H660.316V47.7559C660.312 47.1846 660.18 46.7622 659.921 46.4888C659.667 46.2153 659.269 46.0786 658.727 46.0786C658.288 46.0786 657.902 46.1958 657.57 46.4302C657.238 46.6646 656.979 46.9722 656.793 47.353V53H655.438V45.0752H656.72ZM668.908 53H667.553V45.0752H668.908V53ZM667.443 42.9731C667.443 42.7534 667.509 42.5679 667.641 42.4165C667.777 42.2651 667.978 42.1895 668.241 42.1895C668.505 42.1895 668.705 42.2651 668.842 42.4165C668.979 42.5679 669.047 42.7534 669.047 42.9731C669.047 43.1929 668.979 43.376 668.842 43.5225C668.705 43.6689 668.505 43.7422 668.241 43.7422C667.978 43.7422 667.777 43.6689 667.641 43.5225C667.509 43.376 667.443 43.1929 667.443 42.9731ZM674.262 52.0405C674.745 52.0405 675.167 51.894 675.529 51.6011C675.89 51.3081 676.09 50.9419 676.129 50.5024H677.411C677.387 50.9565 677.23 51.3887 676.942 51.7988C676.654 52.209 676.269 52.5361 675.785 52.7803C675.307 53.0244 674.799 53.1465 674.262 53.1465C673.183 53.1465 672.323 52.7876 671.684 52.0698C671.049 51.3472 670.731 50.3608 670.731 49.1108V48.8838C670.731 48.1123 670.873 47.4263 671.156 46.8257C671.439 46.2251 671.845 45.7588 672.372 45.4268C672.904 45.0947 673.532 44.9287 674.254 44.9287C675.143 44.9287 675.88 45.1948 676.466 45.7271C677.057 46.2593 677.372 46.9502 677.411 47.7998H676.129C676.09 47.2871 675.895 46.8672 675.543 46.54C675.197 46.208 674.767 46.042 674.254 46.042C673.566 46.042 673.031 46.291 672.65 46.7891C672.274 47.2822 672.086 47.9976 672.086 48.9351V49.1914C672.086 50.1045 672.274 50.8076 672.65 51.3008C673.026 51.7939 673.563 52.0405 674.262 52.0405ZM674.481 53.0659L674.394 53.4468C675.141 53.5786 675.514 54.001 675.514 54.7139C675.514 55.1875 675.319 55.561 674.928 55.8345C674.538 56.1128 673.993 56.252 673.295 56.252L673.244 55.4683C673.629 55.4683 673.927 55.4048 674.137 55.2778C674.352 55.1509 674.459 54.9727 674.459 54.7432C674.459 54.5283 674.381 54.3696 674.225 54.2671C674.069 54.1646 673.751 54.0913 673.273 54.0474L673.507 53.0659H674.481ZM682.223 53.1465C681.149 53.1465 680.275 52.7949 679.601 52.0918C678.927 51.3838 678.59 50.439 678.59 49.2573V49.0083C678.59 48.2222 678.739 47.5215 679.037 46.9062C679.34 46.2861 679.76 45.8027 680.297 45.4561C680.839 45.1045 681.425 44.9287 682.055 44.9287C683.085 44.9287 683.886 45.2681 684.457 45.9468C685.028 46.6255 685.314 47.5972 685.314 48.8618V49.4258H679.945C679.965 50.207 680.192 50.8394 680.626 51.3228C681.066 51.8013 681.623 52.0405 682.296 52.0405C682.775 52.0405 683.18 51.9429 683.512 51.7476C683.844 51.5522 684.135 51.2935 684.384 50.9712L685.211 51.6157C684.547 52.6362 683.551 53.1465 682.223 53.1465ZM682.055 46.042C681.508 46.042 681.049 46.2422 680.678 46.6426C680.307 47.0381 680.077 47.5947 679.989 48.3125H683.959V48.21C683.92 47.5215 683.734 46.9893 683.402 46.6133C683.07 46.2324 682.621 46.042 682.055 46.042ZM690.719 46.291C690.514 46.2568 690.292 46.2397 690.053 46.2397C689.164 46.2397 688.561 46.6182 688.244 47.375V53H686.889V45.0752H688.207L688.229 45.9907C688.673 45.2827 689.303 44.9287 690.119 44.9287C690.382 44.9287 690.583 44.9629 690.719 45.0312V46.291ZM693.444 53H692.089V45.0752H693.444V53ZM691.979 42.9731C691.979 42.7534 692.045 42.5679 692.177 42.4165C692.313 42.2651 692.514 42.1895 692.777 42.1895C693.041 42.1895 693.241 42.2651 693.378 42.4165C693.515 42.5679 693.583 42.7534 693.583 42.9731C693.583 43.1929 693.515 43.376 693.378 43.5225C693.241 43.6689 693.041 43.7422 692.777 43.7422C692.514 43.7422 692.313 43.6689 692.177 43.5225C692.045 43.376 691.979 43.1929 691.979 42.9731ZM700.233 50.8979C700.233 50.5317 700.094 50.2485 699.816 50.0483C699.542 49.8433 699.062 49.6675 698.373 49.521C697.689 49.3745 697.145 49.1987 696.74 48.9937C696.339 48.7886 696.042 48.5444 695.846 48.2612C695.656 47.978 695.561 47.6411 695.561 47.2505C695.561 46.6011 695.834 46.0518 696.381 45.6025C696.933 45.1533 697.636 44.9287 698.49 44.9287C699.389 44.9287 700.116 45.1606 700.673 45.6245C701.234 46.0884 701.515 46.6816 701.515 47.4043H700.153C700.153 47.0332 699.994 46.7134 699.677 46.4448C699.364 46.1763 698.969 46.042 698.49 46.042C697.997 46.042 697.611 46.1494 697.333 46.3643C697.055 46.5791 696.916 46.8599 696.916 47.2065C696.916 47.5337 697.045 47.7803 697.304 47.9463C697.562 48.1123 698.029 48.271 698.703 48.4224C699.381 48.5737 699.931 48.7544 700.351 48.9644C700.771 49.1743 701.081 49.4282 701.281 49.7261C701.486 50.019 701.588 50.3779 701.588 50.8027C701.588 51.5107 701.305 52.0796 700.739 52.5093C700.172 52.9341 699.438 53.1465 698.534 53.1465C697.899 53.1465 697.338 53.0342 696.85 52.8096C696.361 52.585 695.978 52.2725 695.7 51.8721C695.426 51.4668 695.29 51.0298 695.29 50.561H696.645C696.669 51.0151 696.85 51.3765 697.187 51.645C697.528 51.9087 697.978 52.0405 698.534 52.0405C699.047 52.0405 699.457 51.938 699.765 51.7329C700.077 51.5229 700.233 51.2446 700.233 50.8979ZM704.826 53H703.471V45.0752H704.826V53ZM703.361 42.9731C703.361 42.7534 703.427 42.5679 703.559 42.4165C703.695 42.2651 703.896 42.1895 704.159 42.1895C704.423 42.1895 704.623 42.2651 704.76 42.4165C704.896 42.5679 704.965 42.7534 704.965 42.9731C704.965 43.1929 704.896 43.376 704.76 43.5225C704.623 43.6689 704.423 43.7422 704.159 43.7422C703.896 43.7422 703.695 43.6689 703.559 43.5225C703.427 43.376 703.361 43.1929 703.361 42.9731ZM708.283 45.0752L708.327 46.0713C708.932 45.3096 709.723 44.9287 710.7 44.9287C712.375 44.9287 713.219 45.8735 713.234 47.7632V53H711.879V47.7559C711.874 47.1846 711.742 46.7622 711.483 46.4888C711.229 46.2153 710.832 46.0786 710.29 46.0786C709.85 46.0786 709.464 46.1958 709.132 46.4302C708.8 46.6646 708.542 46.9722 708.356 47.353V53H707.001V45.0752H708.283ZM714.948 48.9717C714.948 47.7559 715.236 46.7793 715.812 46.042C716.388 45.2998 717.143 44.9287 718.075 44.9287C719.003 44.9287 719.738 45.2461 720.28 45.8809V41.75H721.635V53H720.39L720.324 52.1504C719.782 52.8145 719.027 53.1465 718.061 53.1465C717.143 53.1465 716.393 52.7705 715.812 52.0186C715.236 51.2666 714.948 50.2852 714.948 49.0742V48.9717ZM716.303 49.1255C716.303 50.0239 716.488 50.7271 716.859 51.2349C717.23 51.7427 717.743 51.9966 718.397 51.9966C719.257 51.9966 719.884 51.6108 720.28 50.8394V47.1992C719.875 46.4521 719.252 46.0786 718.412 46.0786C717.748 46.0786 717.23 46.335 716.859 46.8477C716.488 47.3604 716.303 48.1196 716.303 49.1255ZM727.033 53.1465C725.958 53.1465 725.084 52.7949 724.411 52.0918C723.737 51.3838 723.4 50.439 723.4 49.2573V49.0083C723.4 48.2222 723.549 47.5215 723.847 46.9062C724.149 46.2861 724.569 45.8027 725.106 45.4561C725.648 45.1045 726.234 44.9287 726.864 44.9287C727.895 44.9287 728.695 45.2681 729.267 45.9468C729.838 46.6255 730.124 47.5972 730.124 48.8618V49.4258H724.755C724.774 50.207 725.001 50.8394 725.436 51.3228C725.875 51.8013 726.432 52.0405 727.106 52.0405C727.584 52.0405 727.99 51.9429 728.322 51.7476C728.654 51.5522 728.944 51.2935 729.193 50.9712L730.021 51.6157C729.357 52.6362 728.361 53.1465 727.033 53.1465ZM726.864 46.042C726.317 46.042 725.858 46.2422 725.487 46.6426C725.116 47.0381 724.887 47.5947 724.799 48.3125H728.769V48.21C728.729 47.5215 728.544 46.9893 728.212 46.6133C727.88 46.2324 727.431 46.042 726.864 46.042ZM740.312 53C740.233 52.8438 740.17 52.5654 740.121 52.165C739.491 52.8193 738.739 53.1465 737.865 53.1465C737.084 53.1465 736.442 52.9268 735.939 52.4873C735.441 52.043 735.192 51.4814 735.192 50.8027C735.192 49.9775 735.504 49.3379 736.129 48.8838C736.759 48.4248 737.643 48.1953 738.781 48.1953H740.099V47.5728C740.099 47.0991 739.958 46.7231 739.674 46.4448C739.391 46.1616 738.974 46.02 738.422 46.02C737.938 46.02 737.533 46.1421 737.206 46.3862C736.879 46.6304 736.715 46.9258 736.715 47.2725H735.353C735.353 46.877 735.492 46.4961 735.771 46.1299C736.054 45.7588 736.435 45.4658 736.913 45.251C737.396 45.0361 737.926 44.9287 738.502 44.9287C739.416 44.9287 740.131 45.1582 740.648 45.6172C741.166 46.0713 741.435 46.6987 741.454 47.4995V51.147C741.454 51.8745 741.547 52.4531 741.732 52.8828V53H740.312ZM738.063 51.9673C738.488 51.9673 738.891 51.8574 739.271 51.6377C739.652 51.418 739.928 51.1323 740.099 50.7808V49.1548H739.037C737.377 49.1548 736.547 49.6406 736.547 50.6123C736.547 51.0371 736.688 51.3691 736.972 51.6084C737.255 51.8477 737.619 51.9673 738.063 51.9673ZM747.409 46.291C747.204 46.2568 746.981 46.2397 746.742 46.2397C745.854 46.2397 745.25 46.6182 744.933 47.375V53H743.578V45.0752H744.896L744.918 45.9907C745.363 45.2827 745.993 44.9287 746.808 44.9287C747.072 44.9287 747.272 44.9629 747.409 45.0312V46.291ZM753.261 53C753.183 52.8438 753.119 52.5654 753.07 52.165C752.44 52.8193 751.688 53.1465 750.814 53.1465C750.033 53.1465 749.391 52.9268 748.888 52.4873C748.39 52.043 748.141 51.4814 748.141 50.8027C748.141 49.9775 748.454 49.3379 749.079 48.8838C749.708 48.4248 750.592 48.1953 751.73 48.1953H753.048V47.5728C753.048 47.0991 752.907 46.7231 752.624 46.4448C752.34 46.1616 751.923 46.02 751.371 46.02C750.888 46.02 750.482 46.1421 750.155 46.3862C749.828 46.6304 749.665 46.9258 749.665 47.2725H748.302C748.302 46.877 748.441 46.4961 748.72 46.1299C749.003 45.7588 749.384 45.4658 749.862 45.251C750.346 45.0361 750.875 44.9287 751.452 44.9287C752.365 44.9287 753.08 45.1582 753.598 45.6172C754.115 46.0713 754.384 46.6987 754.403 47.4995V51.147C754.403 51.8745 754.496 52.4531 754.682 52.8828V53H753.261ZM751.012 51.9673C751.437 51.9673 751.84 51.8574 752.221 51.6377C752.602 51.418 752.877 51.1323 753.048 50.7808V49.1548H751.986C750.326 49.1548 749.496 49.6406 749.496 50.6123C749.496 51.0371 749.638 51.3691 749.921 51.6084C750.204 51.8477 750.568 51.9673 751.012 51.9673Z" fill="#B0B0B0"/>
<path d="M478.5 39C480.224 39 481.877 39.6848 483.096 40.9038C484.315 42.1228 485 43.7761 485 45.5C485 47.11 484.41 48.59 483.44 49.73L483.71 50H484.5L489.5 55L488 56.5L483 51.5V50.71L482.73 50.44C481.59 51.41 480.11 52 478.5 52C476.776 52 475.123 51.3152 473.904 50.0962C472.685 48.8772 472 47.2239 472 45.5C472 43.7761 472.685 42.1228 473.904 40.9038C475.123 39.6848 476.776 39 478.5 39ZM478.5 41C476 41 474 43 474 45.5C474 48 476 50 478.5 50C481 50 483 48 483 45.5C483 43 481 41 478.5 41Z" fill="#333333"/>
<defs>
<filter id="filter0_d" x="-1" y="0" width="1442" height="98" filterUnits="userSpaceOnUse" color-interpolation-filters="sRGB">
<feFlood flood-opacity="0" result="BackgroundImageFix"/>
<feColorMatrix in="SourceAlpha" type="matrix" values="0 0 0 0 0 0 0 0 0 0 0 0 0 0 0 0 0 0 127 0" result="hardAlpha"/>
<feOffset dy="1"/>
<feGaussianBlur stdDeviation="0.5"/>
<feColorMatrix type="matrix" values="0 0 0 0 0 0 0 0 0 0 0 0 0 0 0 0 0 0 0.35 0"/>
<feBlend mode="normal" in2="BackgroundImageFix" result="effect1_dropShadow"/>
<feBlend mode="normal" in="SourceGraphic" in2="effect1_dropShadow" result="shape"/>
</filter>
</defs>
</svg>
